# xmcd
#
# Track frame offsets: 
#        150
#        18210
#        34473
#        48645
#        63217
#        86890
#        109527
#        127026
#        147919
#        163802
#
# Disc length: 2426 seconds
#
# Revision: 0
# Processed by: cddbd v1.5.2PL0 Copyright (c) Steve Scherf et al.
# Submitted via: ExactAudioCopy v1.0b3
#
DISCID=8b09780a
DTITLE=Sheila Romero - En Tus Manos
DYEAR=2009
DGENRE=Contemporánea Internacional
TTITLE0=Mi Refugio
TTITLE1=En Tus Manos
TTITLE2=Vivo por Él
TTITLE3=Tu Creaste
TTITLE4=Sheila Romero (feat Blest) - Completo En Tí
TTITLE5=Créelo
TTITLE6=Más Allá
TTITLE7=Tu eres mi Rey
TTITLE8=Porque Estoy Contigo
TTITLE9=Será
EXTD=
EXTT0=
EXTT1=
EXTT2=
EXTT3=
EXTT4=
EXTT5=
EXTT6=
EXTT7=
EXTT8=
EXTT9=
PLAYORDER=
